<?xml version="1.0" encoding="UTF-8"?>
<svg class="bi bi-dpad" width="16" height="16" fill="currentColor" version="1.1" viewBox="0 0 16 16" xmlns="http://www.w3.org/2000/svg">
 <path d="m7.83 2.94-0.728 1.16a0.228 0.228 0 0 0 0.193 0.348h1.46a0.228 0.228 0 0 0 0.193-0.348l-0.728-1.17a0.228 0.228 0 0 0-0.386 0zm0 10.3-0.728-1.16a0.228 0.228 0 0 1 0.193-0.349h1.46a0.228 0.228 0 0 1 0.193 0.349l-0.728 1.16a0.228 0.228 0 0 1-0.386 0zm-3.8-4.24-1.16-0.726a0.228 0.228 0 0 1 0-0.386l1.16-0.728a0.228 0.228 0 0 1 0.348 0.192v1.46a0.228 0.228 0 0 1-0.349 0.193zm9.15-0.727-1.16 0.728a0.228 0.228 0 0 1-0.349-0.193v-1.46a0.228 0.228 0 0 1 0.349-0.193l1.16 0.728a0.228 0.228 0 0 1 0 0.386z" stroke-width=".911"/>
 <path d="m6.65 0.808a1.37 1.37 0 0 0-1.37 1.37v2.73a0.456 0.456 0 0 1-0.456 0.456h-2.73a1.37 1.37 0 0 0-1.37 1.37v2.73a1.37 1.37 0 0 0 1.37 1.37h2.73a0.456 0.456 0 0 1 0.456 0.456v2.73a1.37 1.37 0 0 0 1.37 1.37h2.73a1.37 1.37 0 0 0 1.37-1.37v-2.73a0.456 0.456 0 0 1 0.456-0.456h2.73a1.37 1.37 0 0 0 1.37-1.37v-2.73a1.37 1.37 0 0 0-1.37-1.37h-2.73a0.456 0.456 0 0 1-0.456-0.456v-2.73a1.37 1.37 0 0 0-1.37-1.37zm-0.456 1.37a0.456 0.456 0 0 1 0.456-0.456h2.73a0.456 0.456 0 0 1 0.456 0.456v2.73a1.37 1.37 0 0 0 1.37 1.37h2.73a0.456 0.456 0 0 1 0.456 0.456v2.73a0.456 0.456 0 0 1-0.456 0.456h-2.73a1.37 1.37 0 0 0-1.37 1.37v2.73a0.456 0.456 0 0 1-0.456 0.456h-2.73a0.456 0.456 0 0 1-0.456-0.456v-2.73a1.37 1.37 0 0 0-1.37-1.37h-2.73a0.456 0.456 0 0 1-0.456-0.456v-2.73a0.456 0.456 0 0 1 0.456-0.456h2.73a1.37 1.37 0 0 0 1.37-1.37z" stroke-width=".911"/>
</svg>
