<?xml version="1.0" encoding="UTF-8"?>
<svg width="512px" height="512px" enable-background="new 0 0 512 512" version="1.1" viewBox="0 0 512 512" xml:space="preserve" xmlns="http://www.w3.org/2000/svg"><path d="m449 207h-17.7c-14.4 0-26.6-12.5-26.6-27.3 0-7.46 3.15-14.2 8.74-19.2l11.4-11.2c11.3-11.2 11.3-29.5 0-40.7l-26-25.8c-5.13-5.13-12.7-8.16-20.4-8.16s-15.1 3.03-20.4 8.16l-11 11c-5.24 5.83-12.2 8.97-19.8 8.97-14.9 0-27.4-12.1-27.4-26.5v-17.8c0-15.7-12.7-29.2-28.5-29.2h-35.4c-15.8 0-28.4 13.4-28.4 29.2v17.7c0 14.3-12.5 26.5-27.4 26.5-7.46 0-14.3-3.15-19.3-8.62l-11.3-11.2c-5.13-5.24-12.7-8.16-20.4-8.16-7.69 0-15.1 3.03-20.4 8.16l-26.2 25.6c-11.2 11.2-11.2 29.5 0 40.6l11 11c5.83 5.24 9.09 12.2 9.09 19.7 0 14.9-12.1 27.3-26.6 27.3h-17.7c-16 0-29.4 12.5-29.4 28.3v35.4c0 15.7 13.4 28.3 29.4 28.3h17.7c14.4 0 26.6 12.5 26.6 27.3 0 7.46-3.26 14.4-9.09 19.7l-11 10.8c-11.2 11.2-11.2 29.5 0 40.6l26 25.9c5.13 5.24 12.7 8.16 20.4 8.16 7.69 0 15.1-3.03 20.4-8.16l11.3-11.2c4.89-5.48 11.9-8.62 19.3-8.62 14.9 0 27.4 12.1 27.4 26.5v17.7c0 15.7 12.6 29.2 28.5 29.2h35.4c15.8 0 28.4-13.4 28.4-29.2v-17.7c0-14.3 12.5-26.5 27.4-26.5 7.46 0 14.4 3.26 19.8 8.97l11 11c5.24 5.13 12.7 8.16 20.4 8.16s15.1-3.03 20.4-8.16l26-25.9c11.2-11.2 11.2-29.5 0-40.7l-11.4-11.2c-5.59-5.01-8.74-11.9-8.74-19.2 0-14.9 12.1-27.3 26.6-27.3h17.7c15.8 0 27.2-12.5 27.2-28.3v-35.5c0.233-15.8-11.1-28.3-26.9-28.3zm-102 46c0 51.4-41.6 93.2-93.2 93.2s-93.2-41.8-93.2-93.2c0-51.4 41.6-93.2 93.2-93.2s93.2 41.8 93.2 93.2z" stroke-width="1.17"/></svg>
