<?xml version="1.0" encoding="UTF-8"?>
<svg width="980pt" height="980pt" version="1.0" viewBox="0 0 980 980" xmlns="http://www.w3.org/2000/svg">
 <metadata>Created by potrace 1.16, written by Peter Selinger 2001-2019</metadata>
 <g transform="matrix(.0934 0 0 -.0934 28.3 943)">
  <path d="m4776 9789c-227-23-446-112-628-258-92-73-3872-4e3 -3951-4109-68-91-139-229-168-327-29-100-35-242-15-329 39-164 169-328 317-399 141-68 157-70 542-75l347-3v-1462c1-804 5-1520 10-1592 19.4-1327 456-1235 1982-1235h768l2 1758 3 1757 23 48c30 60 83 92 178 107 105 16 1436 9 1488-9 21-7 56-29 77-49 73-70 69 49 69-1884v-1728h783c1719-4.38 1961-27.1 1967 1235 5 72 9 788 10 1592v1462l348 3c384 5 400 7 541 75 54 26 94 56 151 112 202 200 235 471 91 766-52 108-123 205-233 322-341 359-3639 3787-3717 3864-115 112-196 173-317 235-198 100-442 146-668 123z"/>
 </g>
</svg>
