<?xml version="1.0" encoding="UTF-8"?>
<!-- Created with Inkscape (http://www.inkscape.org/) -->
<svg width="256" height="256" version="1.1" viewBox="0 0 67.7 67.7" xmlns="http://www.w3.org/2000/svg">
 <path d="m46.1 9.59c-0.369 0.0792-2.19 0.475-4.09 0.897-6.99 1.56-8.71 1.58-15.4 0.0792-3.69-0.792-8.29-1.08-10.6-0.607-5.01 0.95-8.52 5.04-11.3 13.1-4.22 12.3-5.75 27.4-3.25 32.3 0.924 1.79 1.98 2.43 4.06 2.43 2.59 0 4.22-1.06 8.89-5.75 5.96-5.96 6.02-5.99 19.6-5.99 13.7 0 13.7 0 19.8 6.2 4.78 4.86 5.83 5.54 8.73 5.54 2.59 0 3.59-0.844 4.54-3.83 0.554-1.69 0.607-2.3 0.554-7.39-0.0264-4.35-0.158-6.23-0.581-8.71-2.27-12.7-5.7-21.5-9.9-25.4-0.686-0.633-2.03-1.5-2.96-1.95-1.53-0.712-2.06-0.818-4.54-0.897-1.56-0.0264-3.11 0-3.48 0.0528zm-22.7 15.6c2.62 2.77 1.98 7.44-2.16 8.87-3.48 1.13-7.29-2.5-6.58-6.27 1.54-4.48 6.72-4.73 8.74-2.59zm20.3 2.23c1.4 1.29 0.317 3.64-1.66 3.64-1.98 0-2.98-2.19-1.64-3.62 0.765-0.818 2.43-0.844 3.3-0.0264zm6.51-6.37c1.4 1.29 0.317 3.64-1.66 3.64-1.98 0-2.98-2.19-1.64-3.62 0.765-0.818 2.43-0.844 3.3-0.0264zm6.31 6.41c1.4 1.29 0.317 3.64-1.66 3.64-1.98 0-2.98-2.19-1.64-3.62 0.765-0.818 2.43-0.844 3.3-0.0264zm-6.38 6.41c1.4 1.29 0.317 3.64-1.66 3.64-1.98 0-2.98-2.19-1.64-3.62 0.765-0.818 2.43-0.844 3.3-0.0264z"/>
</svg>
